# xmcd
#
# Track frame offsets:
#	150
#	17220
#	39761
#	53417
#	71637
#	81412
#	96082
#	109888
#	122020
#	138747
#	153616
#	164812
#	176103
#	198693
#	208844
#
# Disc length: 2920 seconds
#
# Revision: 2
# Processed by: cddbd v1.5.2PL0 Copyright (c) Steve Scherf et al.
# Submitted via: audiograbber 1.82.02
#
DISCID=df0b660f
DTITLE=Gruppo Musical Andino - Weihnachten auf der Panflöte
DYEAR=1990
DGENRE=Chrismas
TTITLE0=Stille Nacht
TTITLE1=Vom Himmel Hoch (Medley)
TTITLE2=Oh Du Fröhliche
TTITLE3=I Saw The Ships (Medley) 
TTITLE4=Joseph, Lieber Joseph Mein
TTITLE5=Ce Matin (Medley)
TTITLE6=Oh Little Town Of Bethlehem
TTITLE7=Oh Tannenbaum
TTITLE8=The Twelve Days Of Chrismas
TTITLE9=Oh Come All Ye Faithful
TTITLE10=Andachtsjodler - Hirtenlied (Medley)
TTITLE11=Ave Maria
TTITLE12=Ein Kind Geboren Zu Bethlehem (Medley)
TTITLE13=The First Noel
TTITLE14=White Chrismas
EXTD=
EXTT0=
EXTT1=
EXTT2=
EXTT3=
EXTT4=
EXTT5=
EXTT6=
EXTT7=
EXTT8=
EXTT9=
EXTT10=
EXTT11=
EXTT12=
EXTT13=
EXTT14=
PLAYORDER=
